ply
format ascii 1.0
element face 0
property list uchar int vertex_indices
element vertex 503
property float x
property float y
property float z
property uchar diffuse_red
property uchar diffuse_green
property uchar diffuse_blue
end_header
1.850472e+00 -1.092786e+00 -6.664108e+00 203 182 70
2.118501e+00 -8.339830e-01 -6.134746e+00 221 195 83
2.118501e+00 -8.339830e-01 -6.134746e+00 221 195 83
2.137988e+00 -8.243741e-01 -6.098988e+00 177 153 51
2.138878e+00 -7.269428e-01 -6.116725e+00 214 189 76
2.146871e+00 -6.529969e-01 -6.087644e+00 215 190 73
2.126778e+00 -7.643791e-01 -6.118796e+00 215 191 85
2.439831e+00 -4.442849e-01 -5.315420e+00 226 182 185
2.100790e+00 -9.260399e-01 -6.175141e+00 212 189 70
1.854544e+00 -1.055751e+00 -6.672927e+00 41 28 0
1.854544e+00 -1.055751e+00 -6.672927e+00 41 28 0
2.450433e+00 -3.351717e-01 -5.309805e+00 234 192 195
2.443179e+00 -3.833742e-01 -5.325782e+00 239 180 181
2.045797e+00 -6.033823e-01 -6.271390e+00 218 186 68
-8.135647e-01 4.993059e-01 -4.530726e+00 21 27 43
-8.120569e-01 4.996506e-01 -4.529566e+00 21 27 43
-8.135647e-01 4.993059e-01 -4.530726e+00 21 27 43
-7.799290e-01 -2.213534e-01 -4.984836e+00 23 24 28
8.692809e-01 5.636420e-02 -5.589886e+00 210 178 197
9.265087e-02 3.380461e-01 -5.453342e+00 152 22 32
-8.561852e-01 6.063682e-01 -4.553011e+00 192 205 242
1.039485e+00 -7.033622e-03 -5.445577e+00 180 117 131
1.307869e+00 2.011057e-01 -5.498400e+00 188 119 130
9.972872e-01 5.467753e-01 -5.452736e+00 213 193 208
9.972872e-01 5.467753e-01 -5.452736e+00 213 193 208
3.892895e-01 4.720082e-01 -5.335879e+00 72 2 3
-7.972560e-01 3.776928e-01 -4.582067e+00 187 201 240
8.299788e-01 5.393873e-01 -5.454319e+00 95 0 2
4.775200e-01 9.533364e-01 -5.498296e+00 163 18 29
2.263993e+00 -1.074618e+00 -5.788524e+00 202 197 106
9.925344e-01 4.943752e-02 -5.520292e+00 72 5 8
4.424278e-02 4.270547e-01 -5.436463e+00 225 56 94
4.424278e-02 4.270547e-01 -5.436463e+00 225 56 94
-5.147759e-01 4.285541e-01 -4.601371e+00 108 54 70
1.923337e-01 6.224295e-01 -5.351600e+00 217 202 221
-8.608408e-01 4.956212e-01 -4.511904e+00 18 20 30
4.230858e-01 1.038747e+00 -5.503748e+00 171 150 172
2.445323e+00 -4.451686e-01 -5.324560e+00 226 182 185
9.044667e-01 -6.481158e-02 -5.527103e+00 51 9 18
8.234456e-01 1.267303e-01 -5.632858e+00 139 29 46
-4.324044e-01 3.031424e-01 -4.550145e+00 157 99 113
1.041524e+00 6.332582e-01 -5.472524e+00 44 9 7
1.547348e-01 5.531838e-01 -5.336824e+00 82 11 26
-5.294137e-01 4.698063e-01 -4.592802e+00 235 181 195
-8.984742e-01 4.498176e-01 -4.553834e+00 183 230 255
-8.335671e-01 5.648814e-01 -4.428661e+00 179 225 255
-8.569959e-01 6.232007e-01 -4.535797e+00 243 231 243
-7.665972e-01 7.243040e-01 -4.488842e+00 225 165 177
9.535902e-01 -1.744178e-02 -5.544596e+00 66 13 22
1.223428e+00 9.349900e-02 -5.446301e+00 95 35 39
1.105485e+00 9.951036e-02 -5.497861e+00 172 101 113
6.635150e-01 1.903029e-01 -5.585386e+00 115 4 13
9.064328e-01 5.810165e-01 -5.442364e+00 104 11 16
-4.757622e-02 5.841274e-01 -5.346911e+00 108 9 22
-8.237668e-01 4.678162e-01 -4.543330e+00 255 254 254
5.604210e-01 9.151063e-01 -5.505872e+00 153 14 28
-8.641979e-01 7.339652e-01 -4.505404e+00 227 167 179
-9.686811e-01 7.327725e-01 -4.517815e+00 133 74 96
4.534184e-01 1.083179e+00 -5.497577e+00 166 22 33
1.550744e+00 1.227990e+00 -5.249322e+00 69 31 28
1.550744e+00 1.227990e+00 -5.249322e+00 69 31 28
1.708219e+00 -3.307858e+00 -1.226585e+01 97 90 106
-1.166148e+00 -2.753965e+00 -1.251304e+01 72 44 55
2.125514e+00 -8.033185e-01 -6.133102e+00 214 191 78
-7.818821e-01 -1.621532e-01 -4.964644e+00 251 253 255
9.151084e-01 -2.904775e-02 -5.582063e+00 173 134 153
2.063729e+00 5.724135e-01 -6.211670e+00 110 64 25
-8.044057e-01 4.051519e-01 -4.545309e+00 165 217 254
-9.253480e-01 4.233410e-01 -4.561631e+00 168 156 197
-5.719870e-01 5.978208e-01 -4.523177e+00 170 104 126
-8.150680e-01 7.068911e-01 -4.495228e+00 178 107 123
-8.565314e-01 7.035091e-01 -4.493428e+00 174 107 127
-8.573276e-01 7.040389e-01 -4.498562e+00 174 107 127
1.663101e+00 1.345965e+00 -5.393453e+00 69 30 30
9.727075e-01 1.535844e+00 -5.659949e+00 140 24 34
2.454866e+00 -2.824006e+00 -1.004504e+01 103 99 121
2.212497e+00 -2.934885e+00 -1.079988e+01 108 101 117
2.325285e+00 -2.494842e+00 -1.039865e+01 64 53 67
2.243010e+00 -2.304307e+00 -1.073442e+01 74 53 61
2.196831e+00 -2.310794e+00 -1.078973e+01 124 120 134
2.196831e+00 -2.310794e+00 -1.078973e+01 124 120 134
2.425185e+00 -5.448669e-01 -5.377803e+00 240 184 195
2.441611e+00 -5.107475e-01 -5.317893e+00 242 193 212
2.096249e+00 -6.498374e-01 -6.202386e+00 164 169 117
2.449685e+00 -4.309839e-01 -5.297682e+00 234 173 188
2.141967e+00 -5.618600e-01 -6.090864e+00 177 147 41
9.601058e-01 1.966411e-02 -5.545317e+00 171 124 141
-4.583391e-01 -1.995847e-02 -4.688635e+00 226 178 187
-4.499544e-01 2.228422e-02 -4.656374e+00 219 171 182
-4.112888e-01 9.758539e-02 -4.607652e+00 157 101 112
-4.112888e-01 9.758539e-02 -4.607652e+00 157 101 112
-8.377656e-01 9.089964e-02 -4.573303e+00 215 151 168
-4.181881e-01 2.504443e-01 -4.562490e+00 157 99 112
-8.292745e-01 2.351634e-01 -4.608904e+00 245 182 191
1.426452e-01 5.805036e-01 -5.317077e+00 233 218 230
1.697770e-01 5.990480e-01 -5.317477e+00 229 219 231
-8.106324e-01 6.224626e-01 -4.530970e+00 241 217 230
3.984145e-01 9.030150e-01 -5.483609e+00 203 132 150
-8.929068e-01 7.182648e-01 -4.499046e+00 232 172 179
4.535385e-01 1.010670e+00 -5.496577e+00 152 22 54
2.652744e+00 -3.186511e+00 -9.557704e+00 111 103 121
2.353427e+00 -3.493953e+00 -1.041863e+01 100 95 114
2.446087e+00 -3.344034e+00 -1.019317e+01 115 112 130
2.463861e+00 -3.024142e+00 -1.011338e+01 117 106 126
2.355087e+00 -2.617686e+00 -1.046419e+01 73 58 66
2.029015e+00 -2.161760e+00 -1.119508e+01 107 92 111
1.840253e+00 -2.325813e+00 -1.184082e+01 97 86 99
1.990758e+00 -1.965907e+00 -1.136185e+01 107 91 101
2.448806e+00 -6.396859e-01 -5.306820e+00 247 142 75
2.129612e+00 -7.651329e-01 -6.124555e+00 215 191 85
2.450516e+00 -4.701745e-01 -5.303840e+00 249 179 194
2.467179e+00 -2.917995e-01 -5.244953e+00 215 78 123
9.049281e-01 3.255379e-02 -5.547484e+00 223 194 208
1.111938e-01 5.661304e-01 -5.315199e+00 239 225 235
-6.498137e-02 5.559519e-01 -5.314885e+00 209 176 193
1.534248e+00 1.021707e+00 -5.161993e+00 159 96 109
5.705994e-01 9.509858e-01 -5.507132e+00 212 136 155
9.763548e-01 -2.621335e-01 -5.390187e+00 215 148 157
1.147750e-02 5.009530e-01 -5.398254e+00 243 238 244
-2.184549e-01 5.652974e-01 -5.144303e+00 34 19 22
1.920783e+00 7.871917e-01 -6.181180e+00 192 132 142
-3.552817e-02 2.919795e-01 -5.480798e+00 235 234 242
3.432900e-02 1.430305e+00 -5.812061e+00 161 15 26
-1.223838e+00 -2.883911e+00 -1.241359e+01 58 58 69
-1.783582e-02 1.825805e-01 -5.634908e+00 198 32 51
1.388612e+00 3.157582e-01 -5.626387e+00 67 9 9
-2.906637e+00 3.025190e+00 -1.196303e+01 23 21 26
3.391203e-01 -3.386708e+00 -1.303215e+01 9 9 9
7.746038e-01 7.789895e-02 -5.627213e+00 238 230 239
-1.007876e-01 2.213311e-01 -5.540967e+00 230 212 229
2.266676e+00 -1.076438e+00 -5.795169e+00 202 197 106
1.159237e+00 1.213128e-01 -5.489145e+00 189 123 137
3.040948e-01 4.932825e-01 -5.344356e+00 230 208 219
-1.064947e-02 7.326099e-01 -5.406403e+00 91 1 7
1.524915e+00 1.368099e+00 -5.352333e+00 169 119 130
8.049895e-01 -4.833528e+00 -1.438901e+01 42 42 51
2.312661e+00 -3.525372e+00 -1.059465e+01 37 33 48
2.312661e+00 -3.525372e+00 -1.059465e+01 37 33 48
2.893015e+00 -2.808680e+00 -8.885260e+00 60 49 63
2.574372e+00 -2.652602e+00 -9.706783e+00 64 55 67
2.343642e+00 -1.965790e+00 -8.056618e+00 188 174 148
4.732572e-01 -3.186288e+00 -1.283914e+01 104 81 65
2.459914e+00 -3.275277e-01 -5.282042e+00 224 181 194
2.459914e+00 -3.275277e-01 -5.282042e+00 224 181 194
2.165097e+00 -2.939661e-01 -6.094884e+00 220 184 47
6.052291e-01 1.620468e+00 -5.792595e+00 67 1 0
2.584389e+00 -3.087721e+00 -9.749899e+00 53 42 52
2.577993e+00 -3.078867e+00 -9.725257e+00 53 42 52
2.233808e+00 -1.870692e+00 -8.335657e+00 178 171 140
1.474936e+00 -2.531797e+00 -1.218764e+01 110 84 65
1.350440e+00 -2.487858e+00 -1.221310e+01 18 29 45
1.989084e+00 -2.116981e+00 -1.135485e+01 54 41 43
2.427911e+00 -5.491938e-01 -5.322897e+00 225 190 208
2.012423e+00 3.242340e-01 -6.303189e+00 147 111 50
5.088812e-01 8.211253e-01 -5.446810e+00 148 19 29
1.664379e+00 1.345438e+00 -5.396887e+00 69 30 30
2.251525e+00 -3.770410e+00 -1.068853e+01 84 79 97
2.451589e+00 -3.200949e+00 -1.019840e+01 98 89 106
2.758452e+00 -2.760189e+00 -9.169690e+00 56 43 54
1.690620e+00 -3.592894e+00 -1.225548e+01 10 10 12
1.698788e+00 -3.611426e+00 -1.231291e+01 10 10 12
2.616897e+00 -2.762888e+00 -9.624861e+00 59 47 61
2.616897e+00 -2.762888e+00 -9.624861e+00 59 47 61
2.429175e+00 -2.880360e+00 -1.019927e+01 59 52 64
2.429175e+00 -2.880360e+00 -1.019927e+01 59 52 64
1.596514e+00 -2.714293e+00 -1.241616e+01 47 38 45
1.909409e+00 -2.273355e+00 -1.152461e+01 52 42 42
1.855695e+00 -1.096565e+00 -6.682469e+00 203 182 70
2.430583e+00 -5.516460e-01 -5.328768e+00 227 196 213
2.456582e+00 -3.808093e-01 -5.277353e+00 236 188 201
2.462238e+00 -3.230945e-01 -5.254067e+00 245 191 207
2.077498e+00 -2.546758e-01 -6.074383e+00 114 69 10
-4.789231e-01 -7.141109e-02 -4.722226e+00 229 178 190
-3.861810e-01 1.869726e-01 -4.593724e+00 225 164 172
5.020163e-01 2.182719e-01 -5.594001e+00 125 4 14
2.047677e+00 2.732328e-01 -6.319338e+00 84 49 7
-3.294482e-01 4.113383e-01 -4.596270e+00 207 155 168
2.109895e+00 5.957459e-01 -6.202851e+00 176 139 90
3.945732e-01 5.361956e-01 -5.387034e+00 156 27 44
-5.458282e-01 5.504432e-01 -4.538816e+00 189 126 143
-5.458282e-01 5.504432e-01 -4.538816e+00 189 126 143
3.219929e-01 6.617404e-01 -5.263810e+00 219 197 209
4.625657e-01 6.783954e-01 -5.321088e+00 246 224 228
4.625657e-01 6.783954e-01 -5.321088e+00 246 224 228
-5.710917e-01 5.984140e-01 -4.521975e+00 170 104 126
5.396415e-01 7.892988e-01 -5.482728e+00 205 172 197
-6.528971e-01 6.567980e-01 -4.500492e+00 233 178 193
-6.918678e-01 6.887550e-01 -4.502037e+00 226 172 182
-9.466088e-01 7.064941e-01 -4.508529e+00 229 167 180
1.203140e+00 1.067946e+00 -5.136718e+00 184 132 143
2.718216e+00 -3.018831e+00 -9.358874e+00 52 45 57
2.417951e+00 -3.304101e+00 -1.028905e+01 101 97 119
2.355573e+00 -3.294768e+00 -1.039107e+01 105 97 118
2.114207e+00 -3.459117e+00 -1.105456e+01 53 51 65
2.097738e+00 -3.398425e+00 -1.107255e+01 85 78 96
2.044234e+00 -3.351333e+00 -1.123620e+01 39 35 49
2.694353e+00 -2.665347e+00 -9.427042e+00 57 41 47
2.694353e+00 -2.665347e+00 -9.427042e+00 57 41 47
2.320740e+00 -2.795187e+00 -1.053279e+01 57 46 54
1.585385e+00 -3.368939e+00 -1.263243e+01 88 85 103
2.372349e+00 -2.054634e+00 -7.981711e+00 187 178 144
2.466279e+00 -2.517960e+00 -9.984812e+00 67 55 65
1.643936e+00 -3.005391e+00 -1.243975e+01 54 48 60
2.234745e+00 -1.941661e+00 -8.285163e+00 113 98 80
2.035264e+00 -2.339332e+00 -1.126563e+01 63 47 57
2.243250e+00 -2.193518e+00 -1.063466e+01 121 118 134
2.089457e+00 -8.162053e-01 -6.213496e+00 216 192 86
2.435148e+00 -5.779103e-01 -5.403592e+00 221 70 104
2.432901e+00 -4.979838e-01 -5.369638e+00 239 180 193
1.999443e+00 -5.198689e-01 -6.396778e+00 228 191 78
2.181766e+00 -4.331104e-01 -6.025785e+00 229 196 57
2.181766e+00 -4.331104e-01 -6.025785e+00 229 196 57
8.417871e-01 -3.372769e-01 -5.406309e+00 169 46 60
2.132770e+00 -3.266609e-01 -6.079254e+00 97 62 2
2.467267e+00 -2.679696e-01 -5.236046e+00 232 191 210
2.107949e+00 -2.899484e-01 -6.084106e+00 120 75 14
2.467541e+00 -2.164160e-01 -5.273701e+00 240 192 195
2.068482e+00 2.876398e-01 -6.275147e+00 176 139 48
-3.099947e-01 4.287906e-01 -4.635665e+00 171 123 144
-2.978629e-01 4.554667e-01 -4.659190e+00 220 191 199
-9.417706e-01 4.639365e-01 -4.556567e+00 173 160 195
1.819783e-01 5.782769e-01 -5.319207e+00 73 21 45
4.004083e-01 6.224297e-01 -5.332684e+00 243 214 219
1.908592e-01 6.672697e-01 -5.358300e+00 71 6 13
-5.453368e-01 5.928318e-01 -4.544704e+00 237 174 184
-8.184111e-01 6.819759e-01 -4.490173e+00 228 165 173
-8.730628e-01 7.634511e-01 -4.512521e+00 157 100 122
-3.765142e+00 3.786114e+00 -1.163914e+01 146 93 86
2.129031e+00 -3.806185e+00 -1.100739e+01 51 45 59
2.167751e+00 -3.751090e+00 -1.089421e+01 89 87 105
9.498569e-01 -4.939330e+00 -1.427179e+01 48 48 57
2.159652e+00 -3.644414e+00 -1.087008e+01 88 85 102
2.597632e+00 -3.234523e+00 -9.769426e+00 59 54 71
2.878862e+00 -2.894470e+00 -8.895116e+00 56 47 62
2.305942e+00 -3.371739e+00 -1.058972e+01 99 95 118
2.247602e+00 -3.405461e+00 -1.078843e+01 56 46 58
2.734852e+00 -2.887046e+00 -9.358262e+00 117 110 126
2.284451e+00 -3.181819e+00 -1.053596e+01 53 46 61
2.435491e+00 -3.052858e+00 -1.018061e+01 68 59 74
2.081996e+00 -3.313720e+00 -1.118030e+01 88 81 97
1.571744e+00 -3.744937e+00 -1.262459e+01 36 26 32
2.417652e+00 -2.974967e+00 -1.021811e+01 100 93 109
1.909482e+00 -3.396859e+00 -1.168457e+01 52 47 68
1.909482e+00 -3.396859e+00 -1.168457e+01 52 47 68
2.566553e+00 -2.724003e+00 -9.744878e+00 47 34 47
2.024823e+00 -3.185697e+00 -1.139945e+01 90 78 86
1.768705e+00 -3.367010e+00 -1.206616e+01 44 36 49
2.361552e+00 -2.809086e+00 -1.030693e+01 57 46 60
1.910405e+00 -3.067326e+00 -1.165642e+01 57 49 60
1.908240e+00 -2.987765e+00 -1.161402e+01 89 85 99
1.908240e+00 -2.987765e+00 -1.161402e+01 89 85 99
2.411234e+00 -2.469998e+00 -1.019885e+01 106 99 115
2.411234e+00 -2.469998e+00 -1.019885e+01 106 99 115
2.327432e+00 -2.497463e+00 -1.040804e+01 64 53 67
2.327432e+00 -2.497463e+00 -1.040804e+01 64 53 67
1.217302e+00 -2.978188e+00 -1.370372e+01 74 67 78
2.072365e+00 -2.165237e+00 -1.115272e+01 68 55 68
2.267866e+00 -1.073994e+00 -5.797486e+00 197 196 106
2.250872e+00 -1.993360e+00 -1.065494e+01 71 60 79
2.113163e+00 -1.980443e+00 -1.089770e+01 91 79 87
2.113163e+00 -1.980443e+00 -1.089770e+01 91 79 87
1.950631e+00 -2.001103e+00 -1.142777e+01 62 50 55
2.439650e+00 -4.587005e-01 -5.353199e+00 233 187 193
2.195325e+00 -2.258528e-01 -6.005022e+00 175 144 33
2.473524e+00 -1.773883e-01 -5.262920e+00 237 192 205
2.119238e+00 5.239245e-01 -6.160211e+00 139 84 16
-7.028334e-01 4.462082e-01 -4.543815e+00 182 160 191
-8.960961e-01 4.887000e-01 -4.527542e+00 147 198 228
-7.719917e-01 6.120806e-01 -4.520341e+00 235 199 217
5.415498e-01 8.341062e-01 -5.458126e+00 202 159 176
-6.747258e-01 7.082587e-01 -4.501981e+00 146 87 107
3.991941e-01 9.035342e-01 -5.483549e+00 203 132 150
-7.769843e-01 7.810425e-01 -4.515176e+00 216 161 173
5.324762e-01 1.041136e+00 -5.520666e+00 142 34 59
-3.756427e+00 3.339145e+00 -1.159813e+01 144 80 72
-5.140672e+00 3.399790e+00 -1.138150e+01 128 72 58
-5.140672e+00 3.399790e+00 -1.138150e+01 128 72 58
-5.290419e+00 3.389790e+00 -1.131583e+01 125 72 64
-5.290419e+00 3.389790e+00 -1.131583e+01 125 72 64
-3.677097e+00 3.484629e+00 -1.167896e+01 129 57 41
-3.761944e+00 3.499769e+00 -1.172689e+01 130 57 30
-4.841219e+00 3.474281e+00 -1.135672e+01 130 72 56
-3.645061e+00 3.561066e+00 -1.165402e+01 132 53 30
-4.717804e+00 3.581172e+00 -1.141311e+01 134 72 65
-4.677591e+00 3.666929e+00 -1.138628e+01 135 75 58
-3.364229e+00 3.773772e+00 -1.167914e+01 143 85 86
2.309201e+00 -1.579350e+00 -5.630142e+00 214 38 63
7.078235e-01 2.706820e-01 -5.501958e+00 204 29 53
7.078235e-01 2.706820e-01 -5.501958e+00 204 29 53
-6.737118e-01 -2.773078e-01 -4.995077e+00 235 183 196
-7.218832e-01 5.404270e-01 -4.530646e+00 162 189 226
2.065924e+00 1.069579e+00 -5.847359e+00 212 176 116
-3.077112e+00 3.540094e+00 -1.427268e+01 29 26 34
8.024461e-01 -7.895319e-03 -5.620401e+00 81 4 10
-2.915525e+00 3.822076e+00 -1.626684e+01 96 85 103
1.197226e+00 -2.491244e+00 -1.286490e+01 25 29 49
1.869405e+00 -9.877598e-01 -6.639775e+00 203 178 60
1.256864e+00 -5.868346e-02 -5.279296e+00 215 151 156
7.149468e-01 7.017125e-02 -5.676655e+00 199 45 81
3.051897e-01 1.256153e-01 -5.514989e+00 204 42 82
7.263985e-01 1.614845e-01 -5.602770e+00 111 13 20
-5.153245e-01 3.868838e-01 -4.563805e+00 211 160 172
5.072165e-01 8.638439e-01 -5.500313e+00 138 12 28
-8.334154e-01 7.354740e-01 -4.499048e+00 224 165 176
1.973394e+00 -2.240115e+00 -1.150825e+01 104 96 105
8.414557e-01 1.148927e-02 -5.594271e+00 223 197 213
2.115140e+00 5.317871e-01 -6.141761e+00 149 93 24
1.065507e+00 5.846400e-01 -5.401633e+00 102 6 13
-7.150863e-01 8.945568e-01 -4.568523e+00 158 124 143
2.836568e+00 -3.046030e+00 -9.045130e+00 122 117 137
2.624924e+00 -3.174634e+00 -9.681548e+00 117 111 132
2.212305e+00 -2.934815e+00 -1.079969e+01 108 101 117
2.540499e+00 -2.505454e+00 -9.859881e+00 120 114 129
2.471588e+00 -2.524030e+00 -1.000847e+01 67 55 65
2.190074e+00 -1.387031e+00 -5.873819e+00 201 153 45
2.190074e+00 -1.387031e+00 -5.873819e+00 201 153 45
2.249288e+00 -2.306996e+00 -1.074878e+01 74 53 61
2.093804e+00 -7.786169e-01 -6.195500e+00 217 194 83
2.133317e+00 -6.805826e-01 -6.128173e+00 163 137 40
2.172722e+00 -4.595327e-01 -6.020880e+00 225 194 63
-7.626017e-01 3.725042e-01 -4.575766e+00 245 237 249
1.046065e+00 4.921480e-01 -5.418693e+00 201 41 74
2.828763e+00 -3.151184e+00 -9.222153e+00 116 113 136
2.404704e+00 -3.348423e+00 -1.022964e+01 51 47 63
2.812744e+00 -2.893401e+00 -9.126550e+00 115 100 121
2.681613e+00 -2.984534e+00 -9.470409e+00 32 30 45
2.545149e+00 -3.065534e+00 -9.950283e+00 115 109 126
2.276217e+00 -3.182906e+00 -1.067054e+01 113 109 127
2.502179e+00 -2.574018e+00 -9.919418e+00 67 61 76
2.322964e+00 -2.728109e+00 -1.049858e+01 116 108 123
2.354904e+00 -2.482613e+00 -1.031311e+01 104 104 123
2.437532e+00 -2.379569e+00 -1.006069e+01 111 103 121
1.991352e+00 -1.965950e+00 -1.136103e+01 107 91 101
2.426459e+00 -5.260331e-01 -5.333694e+00 208 106 133
2.426459e+00 -5.260331e-01 -5.333694e+00 208 106 133
2.418754e+00 -4.664557e-01 -5.359721e+00 206 60 87
2.448963e+00 -4.066682e-01 -5.314002e+00 208 95 123
2.194777e+00 -4.185876e-01 -5.973499e+00 167 135 16
-7.195384e-01 -2.560856e-01 -4.919224e+00 165 188 229
2.461953e+00 -1.937163e-01 -5.273346e+00 215 80 98
2.461953e+00 -1.937163e-01 -5.273346e+00 215 80 98
2.214916e+00 -1.614389e-02 -5.922434e+00 167 136 16
2.397949e+00 9.077470e-02 -5.413020e+00 184 158 92
-5.594355e-01 4.302537e-01 -4.592309e+00 220 158 170
2.282937e-01 6.373476e-01 -5.324327e+00 187 157 176
-6.471163e-01 8.735033e-01 -4.578436e+00 132 93 111
-2.371279e+00 2.979678e+00 -1.168646e+01 91 86 95
1.576554e+00 3.718217e-01 -5.864614e+00 205 41 51
-2.372101e+00 1.618786e+00 -1.205065e+01 124 105 114
1.833366e+00 -1.072620e+00 -6.623380e+00 226 207 90
-6.642842e-01 3.180618e-01 -4.674173e+00 223 153 168
-6.642842e-01 3.180618e-01 -4.674173e+00 223 153 168
1.320516e+00 1.234228e-01 -5.399537e+00 132 26 23
9.541579e-01 1.531331e-01 -5.638258e+00 135 14 22
-8.221032e-01 1.979569e-01 -4.587678e+00 223 160 168
1.387577e+00 1.263237e+00 -5.223709e+00 200 144 155
-1.845012e+00 1.907882e+00 -1.134170e+01 121 100 115
-4.076315e-01 -1.328202e-01 -4.919619e+00 251 208 218
1.134996e+00 6.533486e-02 -5.366632e+00 134 59 62
7.598468e-01 -2.196410e+00 -1.191482e+01 150 127 125
-6.965343e-01 2.996841e-01 -4.569134e+00 217 152 166
3.960199e-01 6.242834e-01 -5.349684e+00 249 236 236
2.067089e+00 -1.724023e+00 -8.753517e+00 197 186 164
1.864742e+00 -1.002075e+00 -6.629847e+00 234 210 88
2.146612e+00 -5.890495e-01 -6.047134e+00 243 216 80
2.178220e+00 -4.904875e-01 -5.970527e+00 190 158 35
2.184826e+00 -4.919061e-01 -5.981546e+00 190 158 35
-4.482152e-01 3.375566e-01 -4.547940e+00 186 125 131
-4.847691e-01 4.011369e-01 -4.556104e+00 149 91 108
-8.243202e-01 7.688624e-01 -4.517456e+00 184 119 134
2.249393e+00 -2.198356e+00 -1.065100e+01 153 149 170
2.068824e+00 -7.855648e-01 -6.231926e+00 184 192 135
2.068824e+00 -7.855648e-01 -6.231926e+00 184 192 135
2.159203e+00 -5.444059e-01 -6.065875e+00 246 219 83
1.156317e+00 -3.023444e-01 -5.286620e+00 163 93 103
1.239189e+00 -9.717382e-02 -5.265398e+00 156 83 91
-4.657013e-01 3.172438e-01 -4.554556e+00 247 197 208
2.530240e+00 -2.916129e+00 -9.900348e+00 140 131 150
2.449398e+00 -2.570700e+00 -1.006857e+01 128 115 128
2.300296e+00 -2.690248e+00 -1.052678e+01 80 68 82
2.093264e+00 -8.763513e-01 -6.187332e+00 200 170 46
2.093264e+00 -8.763513e-01 -6.187332e+00 200 170 46
2.137412e+00 -8.241694e-01 -6.098175e+00 200 173 44
2.098365e+00 -8.091388e-01 -6.155706e+00 196 170 45
2.098365e+00 -8.091388e-01 -6.155706e+00 196 170 45
1.891544e+00 -2.054497e+00 -1.158242e+01 74 49 49
2.185663e+00 -4.552536e-01 -5.977306e+00 206 173 42
-8.280479e-01 -3.684284e-01 -5.173535e+00 236 189 200
2.175120e+00 -3.403202e-01 -6.026619e+00 206 171 32
-8.686788e-01 -2.089160e-01 -4.984783e+00 157 204 237
-8.764756e-01 -1.637511e-01 -4.940806e+00 119 141 190
8.964756e-01 1.348054e-01 -5.616155e+00 150 41 66
-8.486708e-01 2.984915e-01 -4.588627e+00 228 166 183
-6.248495e-01 3.726014e-01 -4.565436e+00 202 130 146
3.548068e-01 6.141009e-01 -5.308238e+00 155 106 126
3.679855e-01 6.375284e-01 -5.318198e+00 247 224 229
-9.941422e-01 7.800519e-01 -4.558699e+00 249 196 203
1.614320e+00 1.369036e+00 -5.370863e+00 189 140 135
8.923029e-01 4.953924e-01 -5.400926e+00 213 195 202
8.923029e-01 4.953924e-01 -5.400926e+00 213 195 202
2.515417e+00 -3.126440e+00 -9.986760e+00 65 50 61
1.836318e+00 -3.628931e+00 -1.190058e+01 90 91 111
1.836318e+00 -3.628931e+00 -1.190058e+01 90 91 111
-4.394930e-01 2.521792e-01 -4.539772e+00 225 173 182
4.942332e-01 1.047890e+00 -5.513781e+00 140 30 54
1.596445e+00 2.798214e+00 -7.224974e+00 141 136 153
-5.165752e-01 3.794684e-01 -4.549362e+00 240 193 203
-7.485123e-02 6.591234e-01 -5.385752e+00 233 45 74
-2.751493e+00 9.710011e-01 -1.233720e+01 117 96 105
6.041569e-01 1.620597e+00 -5.788730e+00 96 5 3
2.452336e+00 -5.779760e-01 -5.301440e+00 255 64 99
2.452336e+00 -5.779760e-01 -5.301440e+00 255 64 99
1.468016e-01 5.503328e-01 -5.311465e+00 104 39 63
8.411001e-01 6.832468e-01 -5.496435e+00 234 44 79
4.269337e-01 8.448584e-01 -5.481292e+00 180 37 58
1.176400e+00 1.347282e+00 -5.596099e+00 75 43 27
2.558836e+00 -3.257967e+00 -9.871689e+00 128 117 139
1.109842e+00 -2.798783e-01 -5.271549e+00 244 181 190
2.089164e-01 5.331223e-01 -5.317562e+00 150 99 104
5.580645e-01 9.181651e-01 -5.501390e+00 194 28 51
1.492511e+00 1.230339e+00 -5.221111e+00 185 130 132
1.507212e-01 1.187811e+00 -5.568096e+00 117 3 7
5.696655e-01 1.337382e+00 -5.795242e+00 78 0 0
-3.199150e-01 1.664076e+00 -9.359408e+00 6 6 4
1.282052e+00 2.424903e+00 -7.861650e+00 19 14 17
1.603247e+00 -4.485811e+00 -1.266668e+01 92 88 103
2.428712e+00 -3.452182e+00 -1.019970e+01 126 118 137
2.024019e+00 -3.832399e+00 -1.136673e+01 117 113 130
1.716348e+00 -4.250047e+00 -1.239783e+01 60 44 54
1.977411e+00 -3.206140e+00 -1.146931e+01 74 62 78
2.071748e+00 -8.885711e-01 -6.224659e+00 242 216 84
2.082504e+00 -7.732584e-01 -6.174978e+00 240 220 94
4.666935e-01 8.368388e-01 -5.495738e+00 230 194 214
4.666935e-01 8.368388e-01 -5.495738e+00 230 194 214
-3.166697e-01 1.608109e+00 -9.385733e+00 72 59 60
-6.026337e-01 1.660046e+00 -9.927565e+00 14 12 15
1.575964e+00 2.330849e+00 -7.333776e+00 115 95 82
1.575964e+00 2.330849e+00 -7.333776e+00 115 95 82
2.549075e+00 -3.301912e+00 -9.942118e+00 124 118 149
2.622074e+00 -3.165582e+00 -9.651073e+00 146 138 160
1.747820e+00 -4.153546e+00 -1.222450e+01 106 103 119
2.710702e+00 -2.984208e+00 -9.427149e+00 124 114 122
2.230851e+00 -3.149176e+00 -1.074477e+01 117 110 129
1.778132e+00 -3.101391e+00 -1.202564e+01 110 102 119
-8.366946e-01 9.181628e-02 -4.570828e+00 236 173 188
-4.860896e-01 4.292472e-01 -4.584626e+00 196 138 152
4.557749e-01 8.918741e-01 -5.491328e+00 235 153 173
5.810308e-01 1.034011e+00 -5.522196e+00 162 28 49
4.475973e-01 1.034662e+00 -5.507201e+00 223 201 224
2.465053e+00 -2.480784e-01 -5.254416e+00 227 157 174
2.537382e+00 1.403838e-03 -5.239014e+00 221 180 195
2.446395e+00 -3.255127e-01 -5.265895e+00 205 169 184
2.490536e+00 -2.988613e-01 -5.217588e+00 213 36 57
2.470456e+00 -1.642129e-01 -5.220255e+00 220 180 189
2.448246e+00 -2.840310e-02 -5.238579e+00 214 39 53
2.506673e+00 1.443550e-01 -5.129445e+00 220 188 205
2.506673e+00 1.443550e-01 -5.129445e+00 220 188 205
2.465698e+00 -5.009944e-01 -5.285583e+00 214 37 60
-2.939306e+00 -5.741218e-01 -1.444113e+01 103 100 125
-6.577301e-01 6.570610e-01 -4.493473e+00 220 167 180
-9.299927e-01 6.814289e-01 -4.490548e+00 158 96 117
2.723395e+00 -2.895199e+00 -9.435297e+00 87 79 92
2.157269e+00 -7.007350e-01 -6.065331e+00 161 135 39
2.166066e+00 -4.970873e-01 -6.030053e+00 213 182 65
2.474103e+00 -8.955138e-02 -5.239045e+00 228 185 199
-2.955088e+00 -6.048898e-01 -1.460315e+01 105 101 122
-2.179450e+00 3.558786e-01 -1.196230e+01 30 23 27
-2.179450e+00 3.558786e-01 -1.196230e+01 30 23 27
-7.034743e-01 4.448634e-01 -4.540159e+00 168 140 174
4.179624e-01 1.101381e+00 -5.509477e+00 204 168 181
4.179624e-01 1.101381e+00 -5.509477e+00 204 168 181
2.823958e+00 -3.032131e+00 -9.019222e+00 81 74 89
2.147832e+00 -7.451611e-01 -6.071136e+00 159 131 35
2.147832e+00 -7.451611e-01 -6.071136e+00 159 131 35
2.457076e+00 -3.804024e-01 -5.273855e+00 226 180 196
2.463453e+00 -3.226627e-01 -5.253516e+00 229 182 199
2.471939e+00 1.990914e-02 -5.222633e+00 229 167 175
2.471939e+00 1.990914e-02 -5.222633e+00 229 167 175
2.510927e+00 1.767207e-01 -5.111073e+00 208 43 65
2.523416e+00 2.707553e-01 -5.090186e+00 190 71 99
-1.913344e+00 4.629603e-01 -1.155538e+01 41 29 37
-1.821229e+00 5.201571e-01 -1.141102e+01 39 29 37
-1.022853e+00 6.220858e-01 -4.514804e+00 177 111 130
3.970660e-01 9.025857e-01 -5.481659e+00 183 112 129
5.655174e-01 9.811884e-01 -5.510176e+00 134 8 22
2.715832e+00 -2.816902e+00 -9.346381e+00 41 31 41
2.109931e+00 -8.699651e-01 -6.160380e+00 205 177 65
2.475485e+00 -2.679108e-01 -5.240755e+00 235 185 202
2.468549e+00 -1.767180e-01 -5.249247e+00 230 182 190
2.488717e+00 -2.481767e-02 -5.182084e+00 190 82 110
2.488717e+00 -2.481767e-02 -5.182084e+00 190 82 110
2.516230e+00 1.530347e-01 -5.096855e+00 232 168 187
2.520462e+00 1.957666e-01 -5.082086e+00 249 156 168
2.520462e+00 1.957666e-01 -5.082086e+00 249 156 168
9.882236e-01 1.558100e+00 -5.642398e+00 190 117 131
9.345310e-02 7.037255e-02 -1.613291e-01 0 255 0
9.313114e-02 6.974339e-02 -2.113241e-01 255 255 0
-5.093680e-01 7.118267e-01 1.532673e-01 255 0 0
-5.068272e-01 7.089050e-01 1.034174e-01 255 255 0
-1.080055e+00 2.319349e-01 -4.751585e-01 0 255 0
-1.068926e+00 2.299682e-01 -5.238645e-01 255 255 0
-1.117497e+00 2.138473e+00 -3.083319e-01 255 0 0
-1.105154e+00 2.127989e+00 -3.556365e-01 255 255 0
