ply
format ascii 1.0
element face 0
property list uchar int vertex_indices
element vertex 527
property float x
property float y
property float z
property uchar diffuse_red
property uchar diffuse_green
property uchar diffuse_blue
end_header
1.808066e+00 -1.008220e+00 -6.619507e+00 203 182 70
2.036308e+00 -7.524888e-01 -6.075698e+00 221 195 83
2.036308e+00 -7.524888e-01 -6.075698e+00 221 195 83
2.052119e+00 -7.430574e-01 -6.038712e+00 177 153 51
2.045674e+00 -6.479604e-01 -6.037785e+00 214 189 76
2.053524e+00 -5.811789e-01 -6.013509e+00 215 190 73
2.041253e+00 -6.857448e-01 -6.054373e+00 215 191 85
2.313593e+00 -3.745584e-01 -5.287078e+00 226 182 185
2.021691e+00 -8.400488e-01 -6.117647e+00 212 189 70
1.807886e+00 -9.673802e-01 -6.611684e+00 41 28 0
1.807886e+00 -9.673802e-01 -6.611684e+00 41 28 0
2.321187e+00 -2.751765e-01 -5.279128e+00 234 192 195
2.315239e+00 -3.187839e-01 -5.294012e+00 239 180 181
1.965632e+00 -5.388304e-01 -6.194391e+00 218 186 68
-6.029103e-01 4.809573e-01 -4.502853e+00 21 27 43
-6.015560e-01 4.813096e-01 -4.502263e+00 21 27 43
-6.029103e-01 4.809573e-01 -4.502853e+00 21 27 43
-5.850130e-01 -1.665707e-01 -4.914313e+00 23 24 28
8.883526e-01 7.450585e-02 -5.518171e+00 210 178 197
1.881945e-01 3.302045e-01 -5.372937e+00 152 22 32
-6.412932e-01 5.760026e-01 -4.522467e+00 192 205 242
1.043108e+00 1.887689e-02 -5.385648e+00 180 117 131
1.285926e+00 2.061942e-01 -5.443144e+00 188 119 130
1.004599e+00 5.186266e-01 -5.395391e+00 213 193 208
1.004599e+00 5.186266e-01 -5.395391e+00 213 193 208
4.569735e-01 4.517003e-01 -5.271145e+00 72 2 3
-5.897423e-01 3.724455e-01 -4.548925e+00 187 201 240
8.533539e-01 5.118645e-01 -5.392947e+00 95 0 2
5.346898e-01 8.849132e-01 -5.429314e+00 163 18 29
2.160902e+00 -9.585964e-01 -5.728331e+00 202 197 106
1.000359e+00 6.899028e-02 -5.455582e+00 72 5 8
1.449152e-01 4.105241e-01 -5.357025e+00 225 56 94
1.449152e-01 4.105241e-01 -5.357025e+00 225 56 94
-3.389668e-01 4.175157e-01 -4.572152e+00 108 54 70
2.794860e-01 5.868935e-01 -5.282460e+00 217 202 221
-6.444494e-01 4.778087e-01 -4.484925e+00 18 20 30
4.845812e-01 9.608862e-01 -5.427222e+00 171 150 172
2.317439e+00 -3.763624e-01 -5.293842e+00 226 182 185
9.206463e-01 -3.426984e-02 -5.458940e+00 51 9 18
8.465646e-01 1.376768e-01 -5.558303e+00 139 29 46
-2.647327e-01 3.064011e-01 -4.529811e+00 157 99 113
1.043582e+00 5.963156e-01 -5.412153e+00 44 9 7
2.458803e-01 5.246603e-01 -5.267249e+00 82 11 26
-3.517894e-01 4.542777e-01 -4.564364e+00 235 181 195
-6.790275e-01 4.368588e-01 -4.522318e+00 183 230 255
-6.179988e-01 5.397906e-01 -4.410074e+00 179 225 255
-6.417018e-01 5.911386e-01 -4.507887e+00 243 231 243
-5.600115e-01 6.810081e-01 -4.466161e+00 225 165 177
9.649946e-01 8.283333e-03 -5.476922e+00 66 13 22
1.209530e+00 1.095471e-01 -5.391345e+00 95 35 39
1.102650e+00 1.144435e-01 -5.437343e+00 172 101 113
7.020458e-01 1.956916e-01 -5.509937e+00 115 4 13
9.218168e-01 5.492993e-01 -5.381123e+00 104 11 16
6.378745e-02 5.523952e-01 -5.272388e+00 108 9 22
-6.123412e-01 4.529282e-01 -4.514494e+00 255 254 254
6.085179e-01 8.497366e-01 -5.432423e+00 153 14 28
-6.473373e-01 6.897742e-01 -4.481068e+00 227 167 179
-7.406365e-01 6.887713e-01 -4.490799e+00 133 74 96
5.119640e-01 1.000912e+00 -5.422200e+00 166 22 33
1.504744e+00 1.133811e+00 -5.219530e+00 69 31 28
1.504744e+00 1.133811e+00 -5.219530e+00 69 31 28
1.688600e+00 -3.379392e+00 -1.247059e+01 97 90 106
-1.194804e+00 -2.828411e+00 -1.266728e+01 72 44 55
2.037860e+00 -7.191565e-01 -6.060606e+00 214 191 78
-5.861989e-01 -1.132900e-01 -4.896101e+00 251 253 255
9.299822e-01 -2.662829e-03 -5.511332e+00 173 134 153
1.980172e+00 5.387568e-01 -6.145817e+00 110 64 25
-5.951387e-01 3.971345e-01 -4.515469e+00 165 217 254
-7.031786e-01 4.132366e-01 -4.528571e+00 168 156 197
-3.881143e-01 5.685838e-01 -4.501976e+00 170 104 126
-6.032057e-01 6.655233e-01 -4.470854e+00 178 107 123
-6.399614e-01 6.625249e-01 -4.468243e+00 174 107 127
-6.410300e-01 6.631770e-01 -4.474665e+00 174 107 127
1.607254e+00 1.241231e+00 -5.358410e+00 69 30 30
9.818430e-01 1.413230e+00 -5.598063e+00 140 24 34
2.409729e+00 -2.783594e+00 -1.005893e+01 103 99 121
2.181863e+00 -2.931757e+00 -1.087125e+01 108 101 117
2.286455e+00 -2.478416e+00 -1.043764e+01 64 53 67
2.209182e+00 -2.306826e+00 -1.080183e+01 74 53 61
2.164212e+00 -2.315406e+00 -1.086031e+01 124 120 134
2.164212e+00 -2.315406e+00 -1.086031e+01 124 120 134
2.300310e+00 -4.676422e-01 -5.343367e+00 240 184 195
2.314055e+00 -4.355487e-01 -5.286800e+00 242 193 212
2.011440e+00 -5.800607e-01 -6.128340e+00 164 169 117
2.320894e+00 -3.630262e-01 -5.268483e+00 234 173 188
2.051154e+00 -4.971114e-01 -6.020587e+00 177 147 41
9.708785e-01 4.180654e-02 -5.478083e+00 171 124 141
-2.907384e-01 1.730073e-02 -4.649507e+00 226 178 187
-2.825551e-01 5.532260e-02 -4.620442e+00 219 171 182
-2.470827e-01 1.229145e-01 -4.577221e+00 157 101 112
-2.470827e-01 1.229145e-01 -4.577221e+00 157 101 112
-6.259664e-01 1.172614e-01 -4.541434e+00 215 151 168
-2.523622e-01 2.593846e-01 -4.541344e+00 157 99 112
-6.189535e-01 2.453924e-01 -4.571679e+00 245 182 191
2.350881e-01 5.491868e-01 -5.247095e+00 233 218 230
2.594584e-01 5.658504e-01 -5.248122e+00 229 219 231
-6.003395e-01 5.904776e-01 -4.504247e+00 241 217 230
4.627061e-01 8.387215e-01 -5.407860e+00 203 132 150
-6.726905e-01 6.758551e-01 -4.474690e+00 232 172 179
5.121407e-01 9.356526e-01 -5.421240e+00 152 22 54
2.597959e+00 -3.114052e+00 -9.548248e+00 111 103 121
2.318339e+00 -3.462263e+00 -1.045898e+01 100 95 114
2.406254e+00 -3.302708e+00 -1.022050e+01 115 112 130
2.420521e+00 -2.983441e+00 -1.013304e+01 117 106 126
2.317222e+00 -2.602678e+00 -1.051052e+01 73 58 66
2.001881e+00 -2.185761e+00 -1.130092e+01 107 92 111
1.819553e+00 -2.378225e+00 -1.201711e+01 97 86 99
1.964974e+00 -1.998930e+00 -1.148556e+01 107 91 101
2.320543e+00 -5.519409e-01 -5.274904e+00 247 142 75
2.041441e+00 -6.839962e-01 -6.052741e+00 215 191 85
2.321807e+00 -3.985797e-01 -5.273930e+00 249 179 194
2.335429e+00 -2.362690e-01 -5.219648e+00 215 78 123
9.208980e-01 5.346021e-02 -5.478922e+00 223 194 208
2.070480e-01 5.364031e-01 -5.246146e+00 239 225 235
4.870007e-02 5.272171e-01 -5.241832e+00 209 176 193
1.489495e+00 9.478072e-01 -5.136136e+00 159 96 109
6.176445e-01 8.820481e-01 -5.433813e+00 212 136 155
9.870630e-01 -2.108732e-01 -5.333732e+00 215 148 157
1.160046e-01 4.774184e-01 -5.321905e+00 243 238 244
-8.596908e-02 5.365394e-01 -5.080929e+00 34 19 22
1.843157e+00 7.341924e-01 -6.097482e+00 192 132 142
7.226754e-02 2.886195e-01 -5.397300e+00 235 234 242
1.299380e-01 1.316929e+00 -5.719909e+00 161 15 26
-1.247843e+00 -2.949233e+00 -1.254242e+01 58 58 69
8.558508e-02 1.884897e-01 -5.542005e+00 198 32 51
1.358192e+00 3.088773e-01 -5.562557e+00 67 9 9
-2.953798e+00 2.989187e+00 -1.225565e+01 23 21 26
3.052522e-01 -3.505715e+00 -1.332342e+01 9 9 9
8.024642e-01 9.366492e-02 -5.552282e+00 238 230 239
1.236656e-02 2.243887e-01 -5.452033e+00 230 212 229
2.164252e+00 -9.608400e-01 -5.736778e+00 202 197 106
1.151171e+00 1.343247e-01 -5.429778e+00 189 123 137
3.801764e-01 4.708704e-01 -5.277696e+00 230 208 219
9.584208e-02 6.854479e-01 -5.325609e+00 91 1 7
1.479855e+00 1.259005e+00 -5.309392e+00 169 119 130
7.674442e-01 -5.114334e+00 -1.498308e+01 42 42 51
2.281716e+00 -3.505873e+00 -1.065430e+01 37 33 48
2.281716e+00 -3.505873e+00 -1.065430e+01 37 33 48
2.816224e+00 -2.713196e+00 -8.846658e+00 60 49 63
2.519383e+00 -2.598796e+00 -9.696842e+00 64 55 67
2.268797e+00 -1.862696e+00 -7.966569e+00 188 174 148
4.436791e-01 -3.290673e+00 -1.310411e+01 104 81 65
2.328869e+00 -2.689581e-01 -5.252934e+00 224 181 194
2.328869e+00 -2.689581e-01 -5.252934e+00 224 181 194
2.069661e+00 -2.512930e-01 -6.019679e+00 220 184 47
6.460584e-01 1.486690e+00 -5.700573e+00 67 1 0
2.533323e+00 -3.027352e+00 -9.748708e+00 53 42 52
2.526756e+00 -3.017043e+00 -9.721834e+00 53 42 52
2.167332e+00 -1.782537e+00 -8.247648e+00 178 171 140
1.455106e+00 -2.599070e+00 -1.239363e+01 110 84 65
1.330056e+00 -2.555318e+00 -1.241694e+01 18 29 45
1.962237e+00 -2.146487e+00 -1.146913e+01 54 41 43
2.303828e+00 -4.712882e-01 -5.295822e+00 225 190 208
1.929216e+00 3.111720e-01 -6.216276e+00 147 111 50
5.633537e-01 7.656596e-01 -5.378714e+00 148 19 29
1.605789e+00 1.238935e+00 -5.352774e+00 69 30 30
2.224017e+00 -3.755184e+00 -1.075760e+01 84 79 97
2.410298e+00 -3.161586e+00 -1.022349e+01 98 89 106
2.690189e+00 -2.678486e+00 -9.137097e+00 56 43 54
1.675725e+00 -3.676371e+00 -1.248959e+01 10 10 12
1.681086e+00 -3.689021e+00 -1.252729e+01 10 10 12
2.560370e+00 -2.702745e+00 -9.612452e+00 59 47 61
2.560370e+00 -2.702745e+00 -9.612452e+00 59 47 61
2.386710e+00 -2.846532e+00 -1.022281e+01 59 52 64
2.386710e+00 -2.846532e+00 -1.022281e+01 59 52 64
1.578554e+00 -2.796452e+00 -1.266310e+01 47 38 45
1.885216e+00 -2.309660e+00 -1.165785e+01 52 42 42
1.794246e+00 -1.001714e+00 -6.584982e+00 203 182 70
2.304468e+00 -4.727460e-01 -5.296963e+00 227 196 213
2.326180e+00 -3.171021e-01 -5.248650e+00 236 188 201
2.330612e+00 -2.645118e-01 -5.226776e+00 245 191 207
1.989191e+00 -2.150451e-01 -5.998820e+00 114 69 10
-3.102232e-01 -2.915408e-02 -4.682468e+00 229 178 190
-2.247308e-01 2.025271e-01 -4.568230e+00 225 164 172
5.559393e-01 2.210225e-01 -5.515282e+00 125 4 14
1.961824e+00 2.644201e-01 -6.232414e+00 84 49 7
-1.742349e-01 4.021935e-01 -4.572923e+00 207 155 168
2.016572e+00 5.597178e-01 -6.120835e+00 176 139 90
4.611011e-01 5.092672e-01 -5.319523e+00 156 27 44
-3.653441e-01 5.262428e-01 -4.516905e+00 189 126 143
-3.653441e-01 5.262428e-01 -4.516905e+00 189 126 143
3.972624e-01 6.227023e-01 -5.203481e+00 219 197 209
5.230132e-01 6.375115e-01 -5.259697e+00 246 224 228
5.230132e-01 6.375115e-01 -5.259697e+00 246 224 228
-3.873963e-01 5.689618e-01 -4.501390e+00 170 104 126
5.907323e-01 7.369295e-01 -5.412844e+00 205 172 197
-4.595705e-01 6.209393e-01 -4.480728e+00 233 178 193
-4.942406e-01 6.493387e-01 -4.481709e+00 226 172 182
-7.209256e-01 6.651680e-01 -4.483502e+00 229 167 180
1.190054e+00 9.880874e-01 -5.102201e+00 184 132 143
2.657296e+00 -2.941016e+00 -9.340458e+00 52 45 57
2.379566e+00 -3.268770e+00 -1.032247e+01 101 97 119
2.319193e+00 -3.264379e+00 -1.042906e+01 105 97 118
2.089952e+00 -3.467086e+00 -1.115202e+01 53 51 65
2.073454e+00 -3.407520e+00 -1.117072e+01 85 78 96
2.019268e+00 -3.364862e+00 -1.133502e+01 39 35 49
2.631528e+00 -2.598305e+00 -9.404353e+00 57 41 47
2.631528e+00 -2.598305e+00 -9.404353e+00 57 41 47
2.284277e+00 -2.779690e+00 -1.058043e+01 57 46 54
1.570127e+00 -3.473414e+00 -1.291854e+01 88 85 103
2.295686e+00 -1.944260e+00 -7.891932e+00 187 178 144
2.417374e+00 -2.480153e+00 -9.989351e+00 67 55 65
1.627462e+00 -3.092833e+00 -1.269522e+01 54 48 60
2.168064e+00 -1.848137e+00 -8.196390e+00 113 98 80
2.008271e+00 -2.363651e+00 -1.137379e+01 63 47 57
2.205904e+00 -2.190947e+00 -1.068318e+01 121 118 134
2.004395e+00 -7.320304e-01 -6.133904e+00 216 192 86
2.309717e+00 -4.979780e-01 -5.367392e+00 221 70 104
2.306641e+00 -4.248182e-01 -5.335179e+00 239 180 193
1.921829e+00 -4.635785e-01 -6.308702e+00 228 191 78
2.084930e+00 -3.773150e-01 -5.954055e+00 229 196 57
2.084930e+00 -3.773150e-01 -5.954055e+00 229 196 57
8.654823e-01 -2.789451e-01 -5.346119e+00 169 46 60
2.040119e+00 -2.809166e-01 -6.004372e+00 97 62 2
2.334571e+00 -2.143952e-01 -5.209861e+00 232 191 210
2.017289e+00 -2.474347e-01 -6.008612e+00 120 75 14
2.334927e+00 -1.683443e-01 -5.244978e+00 240 192 195
1.980563e+00 2.779841e-01 -6.190531e+00 176 139 48
-1.577186e-01 4.174676e-01 -4.609455e+00 171 123 144
-1.473845e-01 4.410727e-01 -4.631382e+00 220 191 199
-7.179049e-01 4.492610e-01 -4.525152e+00 173 160 195
2.706311e-01 5.474177e-01 -5.251950e+00 73 21 45
4.669638e-01 5.871181e-01 -5.269133e+00 243 214 219
2.780514e-01 6.272847e-01 -5.288999e+00 71 6 13
-3.650349e-01 5.638988e-01 -4.522590e+00 237 174 184
-6.064066e-01 6.433832e-01 -4.468627e+00 228 165 173
-6.556368e-01 7.157689e-01 -4.488917e+00 157 100 122
-3.846739e+00 3.789250e+00 -1.200885e+01 146 93 86
2.106122e+00 -3.810615e+00 -1.110352e+01 51 45 59
2.143083e+00 -3.748478e+00 -1.097968e+01 89 87 105
9.190549e-01 -5.216392e+00 -1.484881e+01 48 48 57
2.134129e+00 -3.640364e+00 -1.095156e+01 88 85 102
2.548484e+00 -3.173648e+00 -9.774263e+00 59 54 71
2.803820e+00 -2.797005e+00 -8.858035e+00 56 47 62
2.273208e+00 -3.351691e+00 -1.064343e+01 99 95 118
2.218974e+00 -3.398378e+00 -1.086338e+01 56 46 58
2.671634e+00 -2.811790e+00 -9.336815e+00 117 110 126
2.250888e+00 -3.161630e+00 -1.058595e+01 53 46 61
2.393849e+00 -3.015382e+00 -1.020468e+01 68 59 74
2.058480e+00 -3.329621e+00 -1.128914e+01 88 81 97
1.554417e+00 -3.844143e+00 -1.287995e+01 36 26 32
2.376327e+00 -2.940588e+00 -1.024372e+01 100 93 109
1.891291e+00 -3.443013e+00 -1.184777e+01 52 47 68
1.891291e+00 -3.443013e+00 -1.184777e+01 52 47 68
2.512954e+00 -2.670452e+00 -9.738039e+00 47 34 47
2.003102e+00 -3.214677e+00 -1.153044e+01 90 78 86
1.748644e+00 -3.425751e+00 -1.224351e+01 44 36 49
2.321407e+00 -2.781614e+00 -1.033620e+01 57 46 60
1.890609e+00 -3.110592e+00 -1.181348e+01 57 49 60
1.887775e+00 -3.028342e+00 -1.176490e+01 89 85 99
1.887775e+00 -3.028342e+00 -1.176490e+01 89 85 99
2.366424e+00 -2.443225e+00 -1.021769e+01 106 99 115
2.366424e+00 -2.443225e+00 -1.021769e+01 106 99 115
2.287394e+00 -2.479915e+00 -1.044189e+01 64 53 67
2.287394e+00 -2.479915e+00 -1.044189e+01 64 53 67
1.194248e+00 -3.138887e+00 -1.416161e+01 74 67 78
2.043054e+00 -2.185658e+00 -1.124769e+01 68 55 68
2.165344e+00 -9.586623e-01 -5.738989e+00 197 196 106
2.212534e+00 -1.994767e+00 -1.070350e+01 71 60 79
2.079763e+00 -1.991729e+00 -1.096516e+01 91 79 87
2.079763e+00 -1.991729e+00 -1.096516e+01 91 79 87
1.924181e+00 -2.034288e+00 -1.154789e+01 62 50 55
2.312289e+00 -3.889185e-01 -5.319734e+00 233 187 193
2.095977e+00 -1.876841e-01 -5.933840e+00 175 144 33
2.339970e+00 -1.329195e-01 -5.234898e+00 237 192 205
2.024915e+00 4.944605e-01 -6.080121e+00 139 84 16
-5.050489e-01 4.335521e-01 -4.517685e+00 182 160 191
-6.764640e-01 4.714446e-01 -4.499649e+00 147 198 228
-5.659202e-01 5.811371e-01 -4.496336e+00 235 199 217
5.926879e-01 7.773509e-01 -5.389992e+00 202 159 176
-4.790070e-01 6.666690e-01 -4.482130e+00 146 87 107
4.640548e-01 8.398111e-01 -5.411432e+00 203 132 150
-5.702636e-01 7.313650e-01 -4.493099e+00 216 161 173
5.831634e-01 9.631488e-01 -5.444060e+00 142 34 59
-3.819729e+00 3.320697e+00 -1.191765e+01 144 80 72
-5.262447e+00 3.408989e+00 -1.174947e+01 128 72 58
-5.262447e+00 3.408989e+00 -1.174947e+01 128 72 58
-5.413120e+00 3.398740e+00 -1.167649e+01 125 72 64
-5.413120e+00 3.398740e+00 -1.167649e+01 125 72 64
-3.747527e+00 3.473120e+00 -1.201964e+01 129 57 41
-3.840610e+00 3.492893e+00 -1.208174e+01 130 57 30
-4.946065e+00 3.479270e+00 -1.171396e+01 130 72 56
-3.714551e+00 3.551096e+00 -1.199635e+01 132 53 30
-4.824964e+00 3.590392e+00 -1.178260e+01 134 72 65
-4.783084e+00 3.678059e+00 -1.175672e+01 135 75 58
-3.429507e+00 3.766938e+00 -1.202887e+01 143 85 86
2.200478e+00 -1.413627e+00 -5.568842e+00 214 38 63
7.427784e-01 2.690391e-01 -5.432875e+00 204 29 53
7.427784e-01 2.690391e-01 -5.432875e+00 204 29 53
-4.901721e-01 -2.169108e-01 -4.923519e+00 235 183 196
-5.213886e-01 5.174417e-01 -4.504456e+00 162 189 226
1.978017e+00 9.936997e-01 -5.799338e+00 212 176 116
-3.276875e+00 3.596642e+00 -1.497186e+01 29 26 34
8.277028e-01 1.601359e-02 -5.544639e+00 81 4 10
-3.242143e+00 3.974263e+00 -1.746954e+01 96 85 103
1.173725e+00 -2.590776e+00 -1.315525e+01 25 29 49
1.806802e+00 -9.004483e-01 -6.545645e+00 203 178 60
1.240181e+00 -2.571014e-02 -5.234034e+00 215 151 156
7.479495e-01 8.601620e-02 -5.596156e+00 199 45 81
3.789859e-01 1.380079e-01 -5.433556e+00 204 42 82
7.588679e-01 1.694214e-01 -5.527505e+00 111 13 20
-3.385685e-01 3.805860e-01 -4.536828e+00 211 160 172
5.614497e-01 8.042573e-01 -5.431448e+00 138 12 28
-6.195617e-01 6.908401e-01 -4.473852e+00 224 165 176
1.949403e+00 -2.277644e+00 -1.164794e+01 104 96 105
8.632070e-01 3.385270e-02 -5.521140e+00 223 197 213
2.022071e+00 5.015552e-01 -6.067576e+00 149 93 24
1.066650e+00 5.532694e-01 -5.350016e+00 102 6 13
-5.164765e-01 8.326045e-01 -4.543218e+00 158 124 143
2.766325e+00 -2.951105e+00 -9.013721e+00 122 117 137
2.571530e+00 -3.107375e+00 -9.674233e+00 117 111 132
2.181228e+00 -2.931369e+00 -1.086989e+01 108 101 117
2.489801e+00 -2.464508e+00 -9.866268e+00 120 114 129
2.424660e+00 -2.489192e+00 -1.002259e+01 67 55 65
2.094816e+00 -1.245940e+00 -5.804488e+00 201 153 45
2.094816e+00 -1.245940e+00 -5.804488e+00 201 153 45
2.215596e+00 -2.310333e+00 -1.081882e+01 74 53 61
2.010689e+00 -7.003071e-01 -6.126018e+00 217 194 83
2.045308e+00 -6.067171e-01 -6.058460e+00 163 137 40
2.071199e+00 -3.995238e-01 -5.937470e+00 225 194 63
-5.587105e-01 3.677684e-01 -4.543213e+00 245 237 249
1.049056e+00 4.697053e-01 -5.364890e+00 201 41 74
2.761849e+00 -3.060888e+00 -9.194962e+00 116 113 136
2.365954e+00 -3.308745e+00 -1.025799e+01 51 47 63
2.743242e+00 -2.805977e+00 -9.095163e+00 115 100 121
2.621989e+00 -2.911289e+00 -9.452574e+00 32 30 45
2.497589e+00 -3.015462e+00 -9.959989e+00 115 109 126
2.243624e+00 -3.169478e+00 -1.073000e+01 113 109 127
2.453374e+00 -2.533779e+00 -9.927783e+00 67 61 76
2.286191e+00 -2.712556e+00 -1.054611e+01 116 108 123
2.314401e+00 -2.462596e+00 -1.034680e+01 104 104 123
2.391623e+00 -2.350465e+00 -1.007806e+01 111 103 121
1.965349e+00 -1.998904e+00 -1.148469e+01 107 91 101
2.301238e+00 -4.497262e-01 -5.302326e+00 208 106 133
2.301238e+00 -4.497262e-01 -5.302326e+00 208 106 133
2.294682e+00 -3.963081e-01 -5.327824e+00 206 60 87
2.321225e+00 -3.413540e-01 -5.285294e+00 208 95 123
2.099615e+00 -3.641136e-01 -5.913294e+00 167 135 16
-5.292258e-01 -1.967681e-01 -4.852894e+00 165 188 229
2.332032e+00 -1.480712e-01 -5.249041e+00 215 80 98
2.332032e+00 -1.480712e-01 -5.249041e+00 215 80 98
2.116977e+00 4.065244e-03 -5.868363e+00 167 136 16
2.276195e+00 1.074822e-01 -5.384198e+00 184 158 92
-3.784436e-01 4.189868e-01 -4.562517e+00 220 158 170
3.122146e-01 6.004084e-01 -5.257742e+00 187 157 176
-4.562321e-01 8.137659e-01 -4.553111e+00 132 93 111
-2.368462e+00 2.904441e+00 -1.182237e+01 91 86 95
1.532114e+00 3.573711e-01 -5.801272e+00 205 41 51
-2.379567e+00 1.548836e+00 -1.217463e+01 124 105 114
1.772936e+00 -9.779877e-01 -6.526621e+00 226 207 90
-4.736754e-01 3.187487e-01 -4.635361e+00 223 153 168
-4.736754e-01 3.187487e-01 -4.635361e+00 223 153 168
1.297047e+00 1.369621e-01 -5.348945e+00 132 26 23
9.649019e-01 1.613434e-01 -5.566622e+00 135 14 22
-6.119621e-01 2.125587e-01 -4.552792e+00 223 160 168
1.358662e+00 1.165615e+00 -5.195452e+00 200 144 155
-1.806689e+00 1.810918e+00 -1.127631e+01 121 100 115
-2.503820e-01 -8.652683e-02 -4.863612e+00 251 208 218
1.129142e+00 8.507629e-02 -5.312978e+00 134 59 62
7.422655e-01 -2.247677e+00 -1.206061e+01 150 127 125
-4.997678e-01 3.032615e-01 -4.538468e+00 217 152 166
4.629156e-01 5.885940e-01 -5.285751e+00 249 236 236
2.014052e+00 -1.659399e+00 -8.679729e+00 197 186 164
1.802060e+00 -9.133528e-01 -6.534827e+00 234 210 88
2.054981e+00 -5.213423e-01 -5.978824e+00 243 216 80
2.084295e+00 -4.273236e-01 -5.906893e+00 190 158 35
2.086226e+00 -4.266867e-01 -5.907911e+00 190 158 35
-2.785229e-01 3.370144e-01 -4.528097e+00 186 125 131
-3.112413e-01 3.935749e-01 -4.530851e+00 149 91 108
-6.121641e-01 7.207878e-01 -4.490636e+00 184 119 134
2.215733e+00 -2.200262e+00 -1.071640e+01 153 149 170
1.986723e+00 -7.052609e-01 -6.155212e+00 184 192 135
1.994089e+00 -7.107857e-01 -6.173392e+00 184 192 135
2.059222e+00 -4.777649e-01 -5.982703e+00 246 219 83
1.148481e+00 -2.449931e-01 -5.234354e+00 163 93 103
1.223236e+00 -6.003987e-02 -5.218225e+00 156 83 91
-2.942415e-01 3.189811e-01 -4.529332e+00 247 197 208
2.482439e+00 -2.867050e+00 -9.908163e+00 140 131 150
2.404767e+00 -2.538048e+00 -1.008776e+01 128 115 128
2.265376e+00 -2.677584e+00 -1.057949e+01 80 68 82
2.008738e+00 -7.873785e-01 -6.111405e+00 200 170 46
2.008738e+00 -7.873785e-01 -6.111405e+00 200 170 46
2.052341e+00 -7.445264e-01 -6.039349e+00 200 173 44
2.012939e+00 -7.250607e-01 -6.081503e+00 196 170 45
2.012939e+00 -7.250607e-01 -6.081503e+00 196 170 45
1.870468e+00 -2.098257e+00 -1.173774e+01 74 49 49
2.085030e+00 -3.951039e-01 -5.903606e+00 206 173 42
-6.332340e-01 -3.020395e-01 -5.090951e+00 236 189 200
2.082153e+00 -2.941452e-01 -5.964594e+00 206 171 32
-6.644332e-01 -1.558328e-01 -4.915791e+00 157 204 237
-6.701792e-01 -1.147181e-01 -4.875166e+00 119 141 190
9.126842e-01 1.450411e-01 -5.544024e+00 150 41 66
-6.357073e-01 3.020124e-01 -4.555487e+00 228 166 183
-4.360127e-01 3.681234e-01 -4.539702e+00 202 130 146
4.262779e-01 5.796052e-01 -5.245792e+00 155 106 126
4.380298e-01 6.006393e-01 -5.255655e+00 247 224 229
-7.643208e-01 7.307562e-01 -4.525012e+00 249 196 203
1.565257e+00 1.262653e+00 -5.340834e+00 189 140 135
9.094462e-01 4.724437e-01 -5.341632e+00 213 195 202
9.094462e-01 4.724437e-01 -5.341632e+00 213 195 202
2.469397e+00 -3.077645e+00 -9.998785e+00 65 50 61
1.818509e+00 -3.683811e+00 -1.207259e+01 90 91 111
1.818509e+00 -3.683811e+00 -1.207259e+01 90 91 111
-2.713719e-01 2.610879e-01 -4.521164e+00 225 173 182
5.488885e-01 9.689277e-01 -5.437075e+00 140 30 54
1.549424e+00 2.590524e+00 -7.096892e+00 141 136 153
-3.396254e-01 3.740853e-01 -4.528595e+00 240 193 203
3.814294e-02 6.198496e-01 -5.303164e+00 233 45 74
-2.741298e+00 8.990341e-01 -1.229794e+01 117 96 105
6.437187e-01 1.486997e+00 -5.690916e+00 96 5 3
2.326628e+00 -4.979381e-01 -5.277562e+00 255 64 99
2.326628e+00 -4.979381e-01 -5.277562e+00 255 64 99
2.386645e-01 5.223603e-01 -5.240798e+00 104 39 63
8.618217e-01 6.412879e-01 -5.428128e+00 234 44 79
4.879959e-01 7.867152e-01 -5.403328e+00 180 37 58
1.163510e+00 1.240500e+00 -5.526237e+00 75 43 27
2.511991e+00 -3.201387e+00 -9.880938e+00 128 117 139
1.108696e+00 -2.261747e-01 -5.228919e+00 244 181 190
2.944208e-01 5.068529e-01 -5.248044e+00 150 99 104
6.058761e-01 8.527542e-01 -5.424849e+00 194 28 51
1.450444e+00 1.134594e+00 -5.184996e+00 185 130 132
2.375159e-01 1.095122e+00 -5.474943e+00 117 3 7
6.126500e-01 1.231216e+00 -5.697046e+00 78 0 0
-2.690892e-01 1.554912e+00 -9.167511e+00 6 6 4
1.254706e+00 2.253580e+00 -7.710112e+00 19 14 17
1.592466e+00 -4.610042e+00 -1.295827e+01 92 88 103
2.390994e+00 -3.410940e+00 -1.023134e+01 126 118 137
2.004733e+00 -3.856718e+00 -1.149245e+01 117 113 130
1.704265e+00 -4.347765e+00 -1.264620e+01 60 44 54
1.951104e+00 -3.226651e+00 -1.157413e+01 74 62 78
1.990161e+00 -8.006361e-01 -6.150236e+00 242 216 84
1.998918e+00 -6.934779e-01 -6.102157e+00 240 220 94
5.236711e-01 7.794940e-01 -5.417759e+00 230 194 214
5.236711e-01 7.794940e-01 -5.417759e+00 230 194 214
-2.666047e-01 1.502182e+00 -9.194125e+00 72 59 60
-5.518019e-01 1.555963e+00 -9.748866e+00 14 12 15
1.528283e+00 2.158399e+00 -7.197377e+00 115 95 82
1.528283e+00 2.158399e+00 -7.197377e+00 115 95 82
2.503930e+00 -3.248624e+00 -9.956644e+00 124 118 149
2.569636e+00 -3.099181e+00 -9.647515e+00 146 138 160
1.734662e+00 -4.236693e+00 -1.244737e+01 106 103 119
2.650154e+00 -2.909989e+00 -9.409988e+00 124 114 122
2.196874e+00 -3.134318e+00 -1.079531e+01 117 110 129
1.753216e+00 -3.147812e+00 -1.217437e+01 110 102 119
-6.250465e-01 1.178744e-01 -4.540681e+00 236 173 188
-3.132912e-01 4.181702e-01 -4.561079e+00 196 138 152
5.138003e-01 8.290311e-01 -5.413115e+00 235 153 173
6.262037e-01 9.570635e-01 -5.444197e+00 162 28 49
5.060377e-01 9.575182e-01 -5.426910e+00 223 201 224
2.334889e+00 -1.971739e-01 -5.231543e+00 227 157 174
2.366695e+00 3.553580e-02 -5.173860e+00 221 180 195
2.318488e+00 -2.674500e-01 -5.241955e+00 205 169 184
2.357846e+00 -2.425637e-01 -5.197071e+00 213 36 57
2.344676e+00 -1.200530e-01 -5.206569e+00 220 180 189
2.334065e+00 -4.443669e-04 -5.238347e+00 214 39 53
2.369443e+00 1.590921e-01 -5.115574e+00 220 188 205
2.379011e+00 1.552861e-01 -5.129392e+00 220 188 205
2.337220e+00 -4.268013e-01 -5.260272e+00 214 37 60
-3.070308e+00 -6.816654e-01 -1.475524e+01 103 100 125
-4.635861e-01 6.215728e-01 -4.472229e+00 220 167 180
-7.051864e-01 6.432474e-01 -4.462471e+00 158 96 117
2.658341e+00 -2.819536e+00 -9.409457e+00 87 79 92
2.064510e+00 -6.234965e-01 -5.995121e+00 161 135 39
2.071035e+00 -4.363958e-01 -5.961253e+00 213 182 65
2.343622e+00 -5.192924e-02 -5.218700e+00 228 185 199
-3.097335e+00 -7.170425e-01 -1.494876e+01 105 101 122
-2.161396e+00 2.898004e-01 -1.192498e+01 30 23 27
-2.161396e+00 2.898004e-01 -1.192498e+01 30 23 27
-5.052538e-01 4.326788e-01 -4.514593e+00 168 140 174
4.789798e-01 1.016959e+00 -5.430732e+00 204 168 181
4.789798e-01 1.016959e+00 -5.430732e+00 204 168 181
2.751137e+00 -2.933536e+00 -8.981124e+00 81 74 89
2.056197e+00 -6.643207e-01 -6.000588e+00 159 131 35
2.056197e+00 -6.643207e-01 -6.000588e+00 159 131 35
2.328545e+00 -3.172906e-01 -5.249397e+00 226 180 196
2.334545e+00 -2.622442e-01 -5.230241e+00 229 182 199
2.346138e+00 4.452582e-02 -5.211417e+00 229 167 175
2.346138e+00 4.452582e-02 -5.211417e+00 229 167 175
2.386625e+00 1.840517e-01 -5.117758e+00 208 43 65
2.383661e+00 2.735280e-01 -5.079185e+00 190 71 99
-1.880156e+00 3.980347e-01 -1.148448e+01 41 29 37
-1.783458e+00 4.548508e-01 -1.132959e+01 39 29 37
-7.883209e-01 5.904543e-01 -4.482327e+00 177 111 130
4.608683e-01 8.381131e-01 -5.404774e+00 183 112 129
6.122530e-01 9.089862e-01 -5.435285e+00 134 8 22
2.648290e+00 -2.738207e+00 -9.313424e+00 41 31 41
2.029441e+00 -7.911834e-01 -6.102833e+00 205 177 65
2.344249e+00 -2.148982e-01 -5.218695e+00 235 185 202
2.337567e+00 -1.325008e-01 -5.226768e+00 230 182 190
2.360251e+00 6.040007e-03 -5.171619e+00 190 82 110
2.360251e+00 6.040007e-03 -5.171619e+00 190 82 110
2.388564e+00 1.633655e-01 -5.100568e+00 232 168 187
2.381170e+00 2.059890e-01 -5.071444e+00 249 156 168
2.381170e+00 2.059890e-01 -5.071444e+00 249 156 168
9.922815e-01 1.430185e+00 -5.568439e+00 190 117 131
2.339221e+00 -1.939918e-01 -5.233831e+00 227 157 174
2.323606e+00 -1.336369e-01 -5.279353e+00 217 38 44
2.370669e+00 8.293573e-02 -5.152376e+00 231 165 180
2.370669e+00 8.293573e-02 -5.152376e+00 231 165 180
2.346253e+00 -1.186890e-01 -5.207704e+00 220 180 189
2.382699e+00 3.491979e-02 -5.116390e+00 208 46 66
2.396009e+00 1.389100e-01 -5.090482e+00 212 43 79
2.078208e+00 -4.598769e-01 -5.924862e+00 154 125 24
2.070003e+00 -1.818868e-01 -5.886124e+00 164 134 26
2.247318e+00 -1.872918e-01 -5.480868e+00 175 143 24
2.247318e+00 -1.872918e-01 -5.480868e+00 175 143 24
2.357481e+00 -3.893257e-02 -5.187093e+00 195 79 113
2.357481e+00 -3.893257e-02 -5.187093e+00 195 79 113
2.353370e+00 6.251603e-02 -5.188709e+00 199 74 90
2.451708e+00 3.538203e-01 -4.954848e+00 250 148 75
2.347900e+00 9.841388e-02 -5.209381e+00 255 60 100
2.411460e+00 2.138857e-01 -5.052234e+00 255 64 106
2.394501e+00 1.552748e-01 -5.066265e+00 255 65 107
-6.870849e-01 1.204269e+00 -6.892035e+00 67 52 60
2.472826e+00 3.918885e-01 -4.914346e+00 228 109 50
2.403509e+00 2.688136e-01 -5.072686e+00 255 198 213
2.394806e+00 2.121440e-01 -5.111414e+00 248 69 109
2.659676e-01 1.438367e-01 -7.529509e-01 0 255 0
2.648015e-01 1.425936e-01 -8.029219e-01 255 255 0
-2.332210e-01 6.827643e-01 -5.021622e-01 255 0 0
-2.318200e-01 6.795699e-01 -5.520404e-01 255 255 0
-7.264081e-01 2.790849e-01 -9.831446e-01 0 255 0
-7.165526e-01 2.765646e-01 -1.032099e+00 255 255 0
-7.546679e-01 1.879087e+00 -8.828593e-01 255 0 0
-7.434074e-01 1.868952e+00 -9.305090e-01 255 255 0
-2.111184e+00 1.513357e+00 -4.835761e+00 0 255 0
-2.068153e+00 1.511759e+00 -4.861175e+00 255 255 0
